<?xml version="1.0" encoding="UTF-8"?>
<svg width="16px" height="16px" viewBox="0 0 16 16" version="1.1" xmlns="http://www.w3.org/2000/svg" xmlns:xlink="http://www.w3.org/1999/xlink">
    <!-- Generator: Sketch 50 (54983) - http://www.bohemiancoding.com/sketch -->
    <title>bloc</title>
    <desc>Created with Sketch.</desc>
    <defs></defs>
    <g id="Icons-NEW" stroke="none" stroke-width="1" fill="none" fill-rule="evenodd">
        <g id="Desktop" transform="translate(-795.000000, -84.000000)" fill="#444444">
            <g id="bloc" transform="translate(795.000000, 84.000000)">
                <path d="M6,0 L1,0 C0.4,0 0,0.4 0,1 L0,6 C0,6.6 0.4,7 1,7 L6,7 C6.6,7 7,6.6 7,6 L7,1 C7,0.4 6.6,0 6,0" id="Fill-1"></path>
                <path d="M15,0 L10,0 C9.4,0 9,0.4 9,1 L9,6 C9,6.6 9.4,7 10,7 L15,7 C15.6,7 16,6.6 16,6 L16,1 C16,0.4 15.6,0 15,0" id="Fill-3"></path>
                <path d="M6,9 L1,9 C0.4,9 0,9.4 0,10 L0,15 C0,15.6 0.4,16 1,16 L6,16 C6.6,16 7,15.6 7,15 L7,10 C7,9.4 6.6,9 6,9" id="Fill-5"></path>
                <path d="M15,9 L10,9 C9.4,9 9,9.4 9,10 L9,15 C9,15.6 9.4,16 10,16 L15,16 C15.6,16 16,15.6 16,15 L16,10 C16,9.4 15.6,9 15,9" id="Fill-7"></path>
            </g>
        </g>
    </g>
</svg>