<?xml version="1.0" encoding="UTF-8"?>
<svg width="16px" height="16px" viewBox="0 0 16 16" version="1.1" xmlns="http://www.w3.org/2000/svg" xmlns:xlink="http://www.w3.org/1999/xlink">
    <!-- Generator: Sketch 50 (54983) - http://www.bohemiancoding.com/sketch -->
    <title>calendar</title>
    <desc>Created with Sketch.</desc>
    <defs></defs>
    <g id="Icons-NEW" stroke="none" stroke-width="1" fill="none" fill-rule="evenodd">
        <g id="Desktop" transform="translate(-651.000000, -84.000000)" fill="#444444">
            <g id="calendar" transform="translate(651.000000, 84.000000)">
                <path d="M2,4 L2,14 L14,14 L14,4 L2,4 Z M1,2 L15,2 C15.5522847,2 16,2.44771525 16,3 L16,15 C16,15.5522847 15.5522847,16 15,16 L1,16 C0.44771525,16 6.76353751e-17,15.5522847 0,15 L0,3 C-6.76353751e-17,2.44771525 0.44771525,2 1,2 Z" id="Rectangle-8" fill-rule="nonzero"></path>
                <path d="M2,4 L2,6 L14,6 L14,4 L2,4 Z M1,2 L15,2 C15.5522847,2 16,2.44771525 16,3 L16,7 C16,7.55228475 15.5522847,8 15,8 L1,8 C0.44771525,8 6.76353751e-17,7.55228475 0,7 L0,3 C-6.76353751e-17,2.44771525 0.44771525,2 1,2 Z" id="Rectangle-8-Copy-3" fill-rule="nonzero"></path>
                <rect id="Rectangle-3" x="3" y="0" width="2" height="4" rx="1"></rect>
                <rect id="Rectangle-3-Copy" x="11" y="0" width="2" height="4" rx="1"></rect>
            </g>
        </g>
    </g>
</svg>