<?xml version="1.0" encoding="UTF-8"?>
<svg width="16px" height="14px" viewBox="0 0 16 14" version="1.1" xmlns="http://www.w3.org/2000/svg" xmlns:xlink="http://www.w3.org/1999/xlink">
    <!-- Generator: Sketch 50 (54983) - http://www.bohemiancoding.com/sketch -->
    <title>download</title>
    <desc>Created with Sketch.</desc>
    <defs></defs>
    <g id="Icons-NEW" stroke="none" stroke-width="1" fill="none" fill-rule="evenodd">
        <g id="Desktop" transform="translate(-687.000000, -84.000000)">
            <g id="download" transform="translate(687.000000, 85.000000)">
                <rect id="Rectangle-8" stroke="#444444" stroke-width="2" x="1" y="12" width="14" height="1" rx="0.5"></rect>
                <g id="Page-1" transform="translate(5.000000, 0.000000)" fill="#444444" fill-rule="nonzero">
                    <path d="M3,6.58578644 L5.29289322,4.29289322 C5.68341751,3.90236893 6.31658249,3.90236893 6.70710678,4.29289322 C7.09763107,4.68341751 7.09763107,5.31658249 6.70710678,5.70710678 L3,9.41421356 L-0.707106781,5.70710678 C-1.09763107,5.31658249 -1.09763107,4.68341751 -0.707106781,4.29289322 C-0.316582489,3.90236893 0.316582489,3.90236893 0.707106781,4.29289322 L3,6.58578644 Z" id="Stroke-1"></path>
                    <path d="M4,6 C4,6.55228475 3.55228475,7 3,7 C2.44771525,7 2,6.55228475 2,6 L2,0 C2,-0.55228475 2.44771525,-1 3,-1 C3.55228475,-1 4,-0.55228475 4,0 L4,6 Z" id="Stroke-3"></path>
                </g>
            </g>
        </g>
    </g>
</svg>