<?xml version="1.0" encoding="UTF-8"?>
<svg width="16px" height="16px" viewBox="0 0 16 16" version="1.1" xmlns="http://www.w3.org/2000/svg" xmlns:xlink="http://www.w3.org/1999/xlink">
    <!-- Generator: Sketch 50 (54983) - http://www.bohemiancoding.com/sketch -->
    <title>emoji5</title>
    <desc>Created with Sketch.</desc>
    <defs></defs>
    <g id="Icons-NEW" stroke="none" stroke-width="1" fill="none" fill-rule="evenodd">
        <g id="Desktop" transform="translate(-174.000000, -124.000000)" fill="#444444">
            <g id="emoji5" transform="translate(174.000000, 124.000000)">
                <path d="M8,14 C4.7,14 2,11.3 2,8 C2,4.7 4.7,2 8,2 C11.3,2 14,4.7 14,8 C14,11.3 11.3,14 8,14 M8,0 C3.6,0 0,3.6 0,8 C0,12.4 3.6,16 8,16 C12.4,16 16,12.4 16,8 C16,3.6 12.4,0 8,0" id="Fill-32"></path>
                <path d="M6,5 C6.553,5 7,5.448 7,6 C7,6.552 6.553,7 6,7 C5.447,7 5,6.552 5,6 C5,5.448 5.447,5 6,5" id="Fill-33"></path>
                <path d="M10,5 C10.553,5 11,5.448 11,6 C11,6.552 10.553,7 10,7 C9.447,7 9,6.552 9,6 C9,5.448 9.447,5 10,5" id="Fill-34"></path>
                <path d="M8,8 C6.3,8 5,9.3 5,11 C5,11.6 5.4,12 6,12 C6.6,12 7,11.6 7,11 C7,10.4 7.4,10 8,10 C8.6,10 9,10.4 9,11 C9,11.6 9.4,12 10,12 C10.6,12 11,11.6 11,11 C11,9.3 9.7,8 8,8" id="Fill-35"></path>
            </g>
        </g>
    </g>
</svg>