<?xml version="1.0" encoding="UTF-8"?>
<svg width="16px" height="16px" viewBox="0 0 16 16" version="1.1" xmlns="http://www.w3.org/2000/svg" xmlns:xlink="http://www.w3.org/1999/xlink">
    <!-- Generator: Sketch 50 (54983) - http://www.bohemiancoding.com/sketch -->
    <title>emoji1</title>
    <desc>Created with Sketch.</desc>
    <defs></defs>
    <g id="Icons-NEW" stroke="none" stroke-width="1" fill="none" fill-rule="evenodd">
        <g id="Desktop" transform="translate(-30.000000, -124.000000)" fill="#444444">
            <g id="emoji1" transform="translate(30.000000, 124.000000)">
                <path d="M8,14 C4.7,14 2,11.3 2,8 C2,4.7 4.7,2 8,2 C11.3,2 14,4.7 14,8 C14,11.3 11.3,14 8,14 M8,0 C3.6,0 0,3.6 0,8 C0,12.4 3.6,16 8,16 C12.4,16 16,12.4 16,8 C16,3.6 12.4,0 8,0" id="Fill-28"></path>
                <path d="M6,5 C6.553,5 7,5.448 7,6 C7,6.552 6.553,7 6,7 C5.447,7 5,6.552 5,6 C5,5.448 5.447,5 6,5" id="Fill-29"></path>
                <path d="M10,5 C10.553,5 11,5.448 11,6 C11,6.552 10.553,7 10,7 C9.447,7 9,6.552 9,6 C9,5.448 9.447,5 10,5" id="Fill-30"></path>
                <path d="M10.9004,8.7998 C10.5994,10.0998 9.4004,10.9998 8.0004,10.9998 C6.5994,10.9998 5.4004,10.0998 5.0994,8.7998 C5.0004,8.1998 4.4004,7.8998 3.9004,7.9998 C3.2994,8.1998 3.0004,8.6998 3.2004,9.2998 C3.7004,11.4998 5.7004,12.9998 8.0004,12.9998 C10.2994,12.9998 12.2994,11.4998 12.7994,9.1998 C13.0004,8.6998 12.7004,8.1998 12.0994,7.9998 C11.5994,7.8998 11.0004,8.1998 10.9004,8.7998" id="Fill-31"></path>
            </g>
        </g>
    </g>
</svg>