<?xml version="1.0" encoding="UTF-8"?>
<svg width="16px" height="16px" viewBox="0 0 16 16" version="1.1" xmlns="http://www.w3.org/2000/svg" xmlns:xlink="http://www.w3.org/1999/xlink">
    <!-- Generator: Sketch 50 (54983) - http://www.bohemiancoding.com/sketch -->
    <title>emoji2-active</title>
    <desc>Created with Sketch.</desc>
    <defs></defs>
    <g id="Icons-NEW" stroke="none" stroke-width="1" fill="none" fill-rule="evenodd">
        <g id="Icons-Updated" transform="translate(-246.000000, -124.000000)" fill="#A7B027">
            <g id="emoji2-active" transform="translate(246.000000, 124.000000)">
                <path d="M8,14 C4.7,14 2,11.3 2,8 C2,4.7 4.7,2 8,2 C11.3,2 14,4.7 14,8 C14,11.3 11.3,14 8,14 M8,0 C3.6,0 0,3.6 0,8 C0,12.4 3.6,16 8,16 C12.4,16 16,12.4 16,8 C16,3.6 12.4,0 8,0" id="Fill-40"></path>
                <path d="M6,5 C6.553,5 7,5.448 7,6 C7,6.552 6.553,7 6,7 C5.447,7 5,6.552 5,6 C5,5.448 5.447,5 6,5" id="Fill-41"></path>
                <path d="M10,5 C10.553,5 11,5.448 11,6 C11,6.552 10.553,7 10,7 C9.447,7 9,6.552 9,6 C9,5.448 9.447,5 10,5" id="Fill-42"></path>
                <path d="M8,12 C9.7,12 11,10.7 11,9 L5,9 C5,10.7 6.3,12 8,12" id="Fill-43"></path>
            </g>
        </g>
    </g>
</svg>