<?xml version="1.0" encoding="UTF-8"?>
<svg width="16px" height="16px" viewBox="0 0 16 16" version="1.1" xmlns="http://www.w3.org/2000/svg" xmlns:xlink="http://www.w3.org/1999/xlink">
    <!-- Generator: Sketch 50 (54983) - http://www.bohemiancoding.com/sketch -->
    <title>fullscreenb</title>
    <desc>Created with Sketch.</desc>
    <defs></defs>
    <g id="Icons-NEW" stroke="none" stroke-width="1" fill="none" fill-rule="evenodd">
        <g id="Desktop" transform="translate(-239.000000, -166.000000)" fill="#444444">
            <g id="fullscreen" transform="translate(239.000000, 166.000000)">
                <polygon id="Fill-235" points="0 7 2.8 4.2 5.3 6.7 6.7 5.3 4.2 2.8 7 0 0 0"></polygon>
                <polygon id="Fill-236" points="9 0 11.8 2.8 9.3 5.3 10.7 6.7 13.2 4.2 16 7 16 0"></polygon>
                <polygon id="Fill-237" points="6.7002 10.7002 5.3002 9.3002 2.8002 11.8002 0.0002 9.0002 0.0002 16.0002 7.0002 16.0002 4.2002 13.2002"></polygon>
                <polygon id="Fill-238" points="10.7002 9.2998 9.3002 10.6998 11.8002 13.1998 9.0002 15.9998 16.0002 15.9998 16.0002 8.9998 13.2002 11.7998"></polygon>
            </g>
        </g>
    </g>
</svg>