<?xml version="1.0" encoding="UTF-8"?>
<svg width="17px" height="16px" viewBox="0 0 17 16" version="1.1" xmlns="http://www.w3.org/2000/svg" xmlns:xlink="http://www.w3.org/1999/xlink">
    <!-- Generator: Sketch 50 (54983) - http://www.bohemiancoding.com/sketch -->
    <title>infob</title>
    <desc>Created with Sketch.</desc>
    <defs></defs>
    <g id="Icons-NEW" stroke="none" stroke-width="1" fill="none" fill-rule="evenodd">
        <g id="Desktop" transform="translate(-140.000000, -166.000000)" fill="#444444">
            <g id="info" transform="translate(140.000000, 166.000000)">
                <path d="M8.1,6 C7.5,6 7.1,5.6 7.1,5 C7.1,4.4 7.5,4 8.1,4 C8.7,4 9.1,4.4 9.1,5 C9.1,5.6 8.7,6 8.1,6 Z M7.1,12 L9.1,12 L9.1,7 L7.1,7 L7.1,12 Z M8.1,0 C3.7,0 0.1,3.6 0.1,8 C0.1,12.4 3.7,16 8.1,16 C12.5,16 16.1,12.4 16.1,8 C16.1,3.6 12.5,0 8.1,0 Z" id="Fill-187"></path>
            </g>
        </g>
    </g>
</svg>