<?xml version="1.0" encoding="UTF-8"?>
<svg width="16px" height="15px" viewBox="0 0 16 15" version="1.1" xmlns="http://www.w3.org/2000/svg" xmlns:xlink="http://www.w3.org/1999/xlink">
    <!-- Generator: Sketch 50 (54983) - http://www.bohemiancoding.com/sketch -->
    <title>list</title>
    <desc>Created with Sketch.</desc>
    <defs></defs>
    <g id="Icons-NEW" stroke="none" stroke-width="1" fill="none" fill-rule="evenodd">
        <g id="Desktop" transform="translate(-759.000000, -84.000000)" fill="#444444">
            <g id="list" transform="translate(759.000000, 84.000000)">
                <path d="M10,0 L1,0 C0.4,0 0,0.4 0,1 L0,2 C0,2.6 0.4,3 1,3 L10,3 C10.6,3 11,2.6 11,2 L11,1 C11,0.4 10.6,0 10,0" id="Fill-1"></path>
                <path d="M10,6 L1,6 C0.4,6 0,6.4 0,7 L0,8 C0,8.6 0.4,9 1,9 L10,9 C10.6,9 11,8.6 11,8 L11,7 C11,6.4 10.6,6 10,6" id="Fill-3"></path>
                <path d="M10,12 L1,12 C0.4,12 0,12.4 0,13 L0,14 C0,14.6 0.4,15 1,15 L10,15 C10.6,15 11,14.6 11,14 L11,13 C11,12.4 10.6,12 10,12" id="Fill-5"></path>
                <path d="M15,0 L14,0 C13.4,0 13,0.4 13,1 L13,14 C13,14.6 13.4,15 14,15 L15,15 C15.6,15 16,14.6 16,14 L16,1 C16,0.4 15.6,0 15,0" id="Fill-7"></path>
            </g>
        </g>
    </g>
</svg>