<?xml version="1.0" encoding="UTF-8"?>
<svg width="17px" height="16px" viewBox="0 0 17 16" version="1.1" xmlns="http://www.w3.org/2000/svg" xmlns:xlink="http://www.w3.org/1999/xlink">
    <!-- Generator: Sketch 50 (54983) - http://www.bohemiancoding.com/sketch -->
    <title>questionb</title>
    <desc>Created with Sketch.</desc>
    <defs></defs>
    <g id="Icons-NEW" stroke="none" stroke-width="1" fill="none" fill-rule="evenodd">
        <g id="Desktop" transform="translate(-177.000000, -166.000000)" fill="#444444">
            <g id="question" transform="translate(177.000000, 166.000000)">
                <path d="M9.6,8.3999 C9.1,8.6999 9.1,8.7999 9.1,8.9999 L9.1,9.9999 L7.1,9.9999 L7.1,8.9999 C7.1,7.6999 7.9,7.0999 8.5,6.6999 C9,6.3999 9.1,6.2999 9.1,5.9999 C9.1,5.3999 8.7,4.9999 8.1,4.9999 C7.7,4.9999 7.4,5.1999 7.2,5.4999 L6.7,6.3999 L5,5.3999 L5.5,4.4999 C6,3.5999 7,2.9999 8.1,2.9999 C9.8,2.9999 11.1,4.2999 11.1,5.9999 C11.1,7.3999 10.2,7.9999 9.6,8.3999 M8.1,12.9999 C7.5,12.9999 7.1,12.5999 7.1,11.9999 C7.1,11.3999 7.5,10.9999 8.1,10.9999 C8.7,10.9999 9.1,11.3999 9.1,11.9999 C9.1,12.5999 8.7,12.9999 8.1,12.9999 M8.1,-0.0001 C3.7,-0.0001 0.1,3.5999 0.1,7.9999 C0.1,12.3999 3.7,15.9999 8.1,15.9999 C12.5,15.9999 16.1,12.3999 16.1,7.9999 C16.1,3.5999 12.5,-0.0001 8.1,-0.0001" id="Fill-188"></path>
            </g>
        </g>
    </g>
</svg>