<?xml version="1.0" encoding="UTF-8"?>
<svg width="16px" height="16px" viewBox="0 0 16 16" version="1.1" xmlns="http://www.w3.org/2000/svg" xmlns:xlink="http://www.w3.org/1999/xlink">
    <!-- Generator: Sketch 50 (54983) - http://www.bohemiancoding.com/sketch -->
    <title>share</title>
    <desc>Created with Sketch.</desc>
    <defs>
        <polygon id="path-1" points="-0.000145060625 0 10.6666222 0 10.6666222 9.77768889 -0.000145060625 9.77768889"></polygon>
        <polygon id="path-3" points="0 0.000177777778 14.2222222 0.000177777778 14.2222222 12.4444444 0 12.4444444"></polygon>
    </defs>
    <g id="Icons-NEW" stroke="none" stroke-width="1" fill="none" fill-rule="evenodd">
        <g id="Desktop" transform="translate(-723.000000, -84.000000)">
            <g id="share" transform="translate(723.000000, 84.000000)">
                <g id="Group-3" transform="translate(5.333333, 0.000000)">
                    <mask id="mask-2" fill="white">
                        <use xlink:href="#path-1"></use>
                    </mask>
                    <g id="Clip-2"></g>
                    <path d="M10.3619556,3.81857778 L6.07128889,0.182133333 C5.66595556,-0.162755556 5.33351111,-0.00364444444 5.33351111,0.534133333 L5.33351111,2.66657778 C3.28195556,3.05857778 1.79217778,3.93235556 0.903288889,5.26835556 C-0.431822222,7.27368889 0.100622222,9.36791111 0.124622222,9.4648 C0.168177778,9.64524444 0.327288889,9.77324444 0.513955556,9.77768889 L0.521955556,9.77768889 C0.704177778,9.77768889 0.865066667,9.6568 0.915733333,9.4808 C1.77795556,6.02835556 4.33884444,6.34924444 5.33351111,6.22213333 L5.33351111,8.35546667 C5.33351111,8.89235556 5.66595556,9.05057778 6.07128889,8.70657778 L10.3619556,5.07013333 C10.7681778,4.72613333 10.7681778,4.16257778 10.3619556,3.81857778" id="Fill-1" fill="#444444" mask="url(#mask-2)"></path>
                </g>
                <g id="Group-6" transform="translate(0.000000, 3.555556)">
                    <mask id="mask-4" fill="white">
                        <use xlink:href="#path-3"></use>
                    </mask>
                    <g id="Clip-5"></g>
                    <path d="M12.4444444,6.58417778 L12.4444444,10.6668444 L1.77777778,10.6668444 L1.77777778,1.77795556 L4.18222222,1.77795556 C4.33688889,1.42951111 4.52355556,1.0784 4.75733333,0.727288889 C4.93066667,0.466844444 5.136,0.233066667 5.34133333,0.000177777778 L0.888888889,0.000177777778 C0.398222222,0.000177777778 0,0.3984 0,0.889066667 L0,11.5557333 C0,12.0464 0.398222222,12.4446222 0.888888889,12.4446222 L13.3333333,12.4446222 C13.824,12.4446222 14.2222222,12.0464 14.2222222,11.5557333 L14.2222222,5.09351111 L12.5546667,6.50773333 C12.5173333,6.53884444 12.4817778,6.55573333 12.4444444,6.58417778" id="Fill-4" fill="#444444" mask="url(#mask-4)"></path>
                </g>
            </g>
        </g>
    </g>
</svg>