<?xml version="1.0" encoding="UTF-8"?>
<svg width="16px" height="16px" viewBox="0 0 16 16" version="1.1" xmlns="http://www.w3.org/2000/svg" xmlns:xlink="http://www.w3.org/1999/xlink">
    <!-- Generator: Sketch 50 (54983) - http://www.bohemiancoding.com/sketch -->
    <title>trash</title>
    <desc>Created with Sketch.</desc>
    <defs></defs>
    <g id="Icons-NEW" stroke="none" stroke-width="1" fill="none" fill-rule="evenodd">
        <g id="Desktop" transform="translate(-895.000000, -83.000000)" fill="#444444">
            <g id="trash" transform="translate(895.000000, 83.000000)">
                <polygon id="Fill-1" points="5 13 7 13 7 7 5 7"></polygon>
                <polygon id="Fill-2" points="9 13 11 13 11 7 9 7"></polygon>
                <path d="M3,14 L13,14 L13,5 L3,5 L3,14 Z M6,3 L10,3 L10,2 L6,2 L6,3 Z M12,1 C12,0.4 11.6,0 11,0 L5,0 C4.4,0 4,0.4 4,1 L4,3 L0,3 L0,5 L1,5 L1,15 C1,15.6 1.4,16 2,16 L14,16 C14.6,16 15,15.6 15,15 L15,5 L16,5 L16,3 L12,3 L12,1 Z" id="Fill-3"></path>
            </g>
        </g>
    </g>
</svg>