<?xml version="1.0" encoding="UTF-8"?>
<svg width="17px" height="4px" viewBox="0 0 17 4" version="1.1" xmlns="http://www.w3.org/2000/svg" xmlns:xlink="http://www.w3.org/1999/xlink">
    <!-- Generator: Sketch 50 (54983) - http://www.bohemiancoding.com/sketch -->
    <title>menu-hor</title>
    <desc>Created with Sketch.</desc>
    <defs></defs>
    <g id="Icons-NEW" stroke="none" stroke-width="1" fill="none" fill-rule="evenodd">
        <g id="Desktop" transform="translate(-578.000000, -90.000000)" fill="#444444">
            <g id="menu-hor" transform="translate(578.000000, 90.000000)">
                <path d="M8.1,0 C9.204,0 10.1,0.896 10.1,2 C10.1,3.104 9.204,4 8.1,4 C6.996,4 6.1,3.104 6.1,2 C6.1,0.896 6.996,0 8.1,0" id="Fill-66"></path>
                <path d="M2.1,0 C3.204,0 4.1,0.896 4.1,2 C4.1,3.104 3.204,4 2.1,4 C0.996,4 0.1,3.104 0.1,2 C0.1,0.896 0.996,0 2.1,0" id="Fill-67"></path>
                <path d="M14.1,0 C15.204,0 16.1,0.896 16.1,2 C16.1,3.104 15.204,4 14.1,4 C12.996,4 12.1,3.104 12.1,2 C12.1,0.896 12.996,0 14.1,0" id="Fill-68"></path>
            </g>
        </g>
    </g>
</svg>