<?xml version="1.0" encoding="UTF-8"?>
<svg width="16px" height="15px" viewBox="0 0 16 15" version="1.1" xmlns="http://www.w3.org/2000/svg" xmlns:xlink="http://www.w3.org/1999/xlink">
    <!-- Generator: Sketch 50 (54983) - http://www.bohemiancoding.com/sketch -->
    <title>playlist</title>
    <desc>Created with Sketch.</desc>
    <defs></defs>
    <g id="Icons-NEW" stroke="none" stroke-width="1" fill="none" fill-rule="evenodd">
        <g id="Desktop" transform="translate(-615.000000, -84.000000)" fill="#444444">
            <g id="playlist" transform="translate(615.000000, 84.000000)">
                <path d="M1.6,12.8 L14.4,12.8 L14.4,4.8 L1.6,4.8 L1.6,12.8 Z M1.6,3.2 C0.7168,3.2 0,3.9168 0,4.8 L0,12.8 C0,13.6832 0.7168,14.4 1.6,14.4 L14.4,14.4 C15.2832,14.4 16,13.6832 16,12.8 L16,4.8 C16,3.9168 15.2832,3.2 14.4,3.2 L1.6,3.2 Z" id="Fill-1"></path>
                <path d="M1.84615385,1.6 L14.1538462,1.6 C14.2897231,1.6 14.4,1.4208 14.4,1.2 L14.4,0.4 C14.4,0.1792 14.2897231,0 14.1538462,0 L1.84615385,0 C1.71027692,0 1.6,0.1792 1.6,0.4 L1.6,1.2 C1.6,1.4208 1.71027692,1.6 1.84615385,1.6" id="Fill-3"></path>
                <path d="M7.2,7.65108066 L7.2,9.94893952 C7.2,10.2250819 7.42385763,10.4489395 7.7,10.4489395 C7.81392034,10.4489395 7.92442516,10.4100373 8.0132222,10.3386726 L9.44280088,9.18974315 C9.6580445,9.0167553 9.69229957,8.70203151 9.51931173,8.48678789 C9.49665089,8.45859168 9.47099709,8.43293788 9.44280088,8.41027704 L8.0132222,7.2613476 C7.79797858,7.08835976 7.48325479,7.12261484 7.31026695,7.33785846 C7.23890219,7.4266555 7.2,7.53716032 7.2,7.65108066 Z" id="Fill-5"></path>
            </g>
        </g>
    </g>
</svg>